PathFileType	4	(X/Y/Z)	0_coords_data.trc
DataRate	CameraRate	NumFrames	NumMarkers	Units	OrigDataRate	OrigDataStartFrame	OrigNumFrames
30.0	30.0	6	21	m	30.0	29	48
Frame#	Time	THUMB_TIP	THUMB_IP	THUMB_MCP	THUMB_CMC	INDEX_TIP	INDEX_DIP	INDEX_PIP	INDEX_MCP	MIDDLE_TIP	MIDDLE_DIP	MIDDLE_PIP	MIDDLE_MCP	RING_TIP	RING_DIP	RING_PIP	RING_MCP	PINKY_TIP	PINKY_DIP	PINKY_PIP	PINKY_MCP	WRIST
X1	Y1	Z1	X2	Y2	Z2	X3	Y3	Z3	X4	Y4	Z4	X5	Y5	Z5	X6	Y6	Z6	X7	Y7	Z7	X8	Y8	Z8	X9	Y9	Z9	X10	Y10	Z10	X11	Y11	Z11	X12	Y12	Z12	X13	Y13	Z13	X14	Y14	Z14	X15	Y15	Z15	X16	Y16	Z16	X17	Y17	Z17	X18	Y18	Z18	X19	Y19	Z19	X20	Y20	Z20	X21	Y21	Z21
27	0.9333333333333294	0.4916525826414675	-0.022480260563325305	-0.16793416809801318	0.49479299596597404	-0.026433864310484	-0.1455175041722254	0.477087673948858	-0.0298489387709322	-0.12014667764450232	0.4763594535488628	-0.031182743229558718	-0.07556438675770305	0.5763008168674476	0.022460821838680034	-0.16598679866149493	0.5614864292677884	0.01801938351253507	-0.15656302311015063	0.541326316814139	0.011550449146318309	-0.14300822370101912	0.5074477997132094	0.0023589152906614563	-0.11889603013796185	0.5992512556849371	0.034092485148846996	-0.13810662411152622	0.5839325028527423	0.027299986395695308	-0.13123656062167727	0.5584116152880549	0.018903361841567157	-0.11994096218655223	0.5193737404319674	0.009047995491067384	-0.10057439300618656	0.6039505588501106	0.03656597024771713	-0.1065596520105428	0.5879790764671201	0.030427138783831964	-0.10088281321171838	0.5651840111892718	0.02353900610742099	-0.09359456196668076	0.529588346736753	0.008086358505081104	-0.08224180070513715	0.6005668932327363	0.02527194530584731	-0.06434998491243671	0.5838228297647561	0.022379618459699158	-0.06228339738820837	0.5632144410976313	0.018704310727892803	-0.0606714269724595	0.5304566140383847	0.003658944990660329	-0.06187358635848564	0.4622830810018608	-0.023011742144276925	-0.051989820119430985
28	0.9666666666666625	0.49849354139485724	-0.023286622369721677	-0.1662550231235691	0.49916063436017566	-0.026704255375541552	-0.14354214634379603	0.4795063402697116	-0.030306997570926142	-0.11967692117244799	0.4771177078064268	-0.031056438339475245	-0.07513904096368884	0.5785414440332781	0.02175827530370622	-0.1626308255182713	0.5631319024137837	0.01811555019579858	-0.15384011560010835	0.5421346887444145	0.01262443597766938	-0.14115254231888882	0.5071550791259808	0.004160945048583331	-0.11838343328416218	0.6002841960177167	0.03273092555732138	-0.13630090642461382	0.5845208043857617	0.026906096853617112	-0.12954910260414365	0.5584490504926687	0.01995415931760902	-0.1185334880759644	0.5188881066579434	0.011034968525115763	-0.09978441664528245	0.6047712861375585	0.034824839434560495	-0.10513121299975484	0.5883704297334724	0.030040239542180047	-0.0993762574758274	0.5651168540264366	0.024857238208445875	-0.09212452023488538	0.5291657216485288	0.00987628694056697	-0.08127058021959194	0.6006055560745635	0.023779191429922797	-0.06412825967539851	0.5837772937139225	0.022054335786298673	-0.06151397986441992	0.5630359018355615	0.019534065136171397	-0.059451234655149565	0.5301731128849126	0.004733017085182478	-0.060811208911315084	0.462283081001861	-0.023011742144276925	-0.051989820119430985
29	0.9999999999999956	0.5059397771965833	-0.023993454978915807	-0.1638303476572152	0.5037316589883637	-0.026878581793453482	-0.14114113750695728	0.4821068001155925	-0.030720864931542136	-0.11908615305855003	0.47790504043335225	-0.030881597081260037	-0.07467658899011145	0.5806863008793367	0.020933229946275445	-0.15881393598656912	0.5646980701089231	0.01821361765604712	-0.15075290715503398	0.5428784400402061	0.013848993227533524	-0.13905403412117462	0.5068038740937233	0.006182363294227833	-0.11775885693856836	0.601170258629151	0.0311413371303374	-0.13420597183074273	0.5849699396555564	0.026451760482902542	-0.12760615849841064	0.558375469108096	0.0211516001489076	-0.11692664602198127	0.5182897916963422	0.013259861684289387	-0.0988433152600095	0.6053530786466107	0.03264803603390132	-0.10351806027872096	0.5885870328743291	0.029511656453388047	-0.09768172304645778	0.5649648286995824	0.026302900893954817	-0.09047926952794141	0.5286413153243649	0.011870037516101384	-0.08013443193633968	0.6004386697873753	0.021789843714541957	-0.06409750713184098	0.5836449751590945	0.021498410169811577	-0.060797978798721036	0.562843461037552	0.020364946178737964	-0.058185644855251045	0.5298235830222057	0.005922001561076029	-0.059590086959006916	0.4622830810018608	-0.023011742144276925	-0.051989820119430985
30	1.0333333333333288	0.513483031762999	-0.024621064518191127	-0.16063853185713292	0.5082248895857043	-0.026974110302628862	-0.13839409173426861	0.48473848353123805	-0.03108001913087255	-0.11838533756668274	0.4786794361407626	-0.03068492745030471	-0.07419233079769366	0.5825570341535596	0.019939707612114943	-0.15474353516565326	0.5660593441358143	0.018232676811203774	-0.1474694530982632	0.5435009072259525	0.01509389203947864	-0.13682639022423232	0.5063986220066832	0.008291709094407684	-0.11705806119293127	0.6018072480185935	0.02930237968397098	-0.13193425080206223	0.5852259981686334	0.025867786860194864	-0.12551041039712862	0.5581880998351337	0.02235988469743344	-0.1152120500361859	0.5176085445884772	0.015570872275675884	-0.09779490539876717	0.6055697138591163	0.03003845742043243	-0.10179618038911406	0.5885806616529374	0.02877654232872051	-0.0958987508272593	0.5647425142849755	0.02771684296598176	-0.08877135675060382	0.5280431557626791	0.01392318111250046	-0.07889143717988986	0.5999619010532588	0.01932028735813962	-0.06426560440041687	0.5833920148795052	0.020674358419162986	-0.060190636455690116	0.5626530326862815	0.021095685402342856	-0.05694577587896321	0.5294244843531823	0.007134868332464128	-0.05830320485179241	0.4622830810018609	-0.023011742144276925	-0.051989820119430985
31	1.0666666666666622	0.5206326210010421	-0.02510851459806651	-0.15684555184454285	0.5124104486212341	-0.02699672546637688	-0.13547195736271747	0.48731028091587913	-0.031395032005575696	-0.11759861182389075	0.4794060586233506	-0.03048806361531664	-0.07370566616870186	0.5840406545117491	0.018800346620419517	-0.15061251741805287	0.5671357287017478	0.018154054747375636	-0.14414677769446443	0.5439617363408563	0.01628664176936412	-0.13458180619283935	0.5059436495487339	0.010376486073982671	-0.11632444520273447	0.6021357211421767	0.027265985275216842	-0.1295823270717229	0.5852575830617377	0.025159459782624904	-0.12336211764705762	0.5579002337290065	0.023475438711548446	-0.1134550968779725	0.5168654490306589	0.01784009611282744	-0.09670584974398766	0.6053297472535484	0.02713888407201981	-0.10002540251809791	0.5883172893764639	0.027886196856662493	-0.09410781850244321	0.5644534478807964	0.029026351947621043	-0.08707951184733562	0.5273888436940746	0.015927424579917138	-0.07762678460609698	0.5990929669306526	0.01649732341925081	-0.06460532526484142	0.5829845951245517	0.019613255059451218	-0.05972564005265685	0.5624652683547421	0.02169358394536569	-0.055796075237031145	0.5289908732153934	0.00831852567341107	-0.05700278036943507	0.4622830810018608	-0.023011742144276925	-0.051989820119430985
32	1.0999999999999952	0.5269057814388816	-0.02542414815220939	-0.15278330232363552	0.516047170786185	-0.0269341681406573	-0.1325889859368985	0.4896374078575896	-0.03162842279213374	-0.11679948324294134	0.4800487735441704	-0.03028138094625832	-0.07325486738438794	0.5850761531439356	0.01760956916585754	-0.14669051237501074	0.5678838941022262	0.017996954211958682	-0.14100930107205648	0.5442515650696079	0.01736627878863073	-0.13245797918567628	0.505472269744004	0.012338984570985034	-0.11559000180547968	0.6021294610735701	0.02518644311875673	-0.1273037213362065	0.5850616225435092	0.02439450570435664	-0.12129857995207238	0.5575148883254071	0.02447321733441188	-0.11178118596019948	0.5161032275537767	0.019959448982035166	-0.09563039129255232	0.604619347942442	0.024178561215175365	-0.0983053692988744	0.5878104925883108	0.0269371755520742	-0.09240177474774303	0.5641108647552948	0.030194270529930844	-0.08548086787929299	0.5267156264528919	0.01779342473909451	-0.07639593474919193	0.5978186883922506	0.013526779495183217	-0.06506282695187732	0.5824237953144831	0.0184122875737589	-0.05939457519862243	0.5622814985150466	0.022136975045209173	-0.05478734155103862	0.5285436746134945	0.009421486387761635	-0.05576664619730473	0.4622830810018609	-0.023011742144276925	-0.051989820119430985
